<svg width="316" height="45" viewBox="0 0 316 45" fill="none" xmlns="http://www.w3.org/2000/svg">
<rect width="316" height="45" rx="6" fill="#03C75A"/>
<g clip-path="url(#clip0_730_4314)">
<path d="M109.349 23.0627L103.417 14.5H98.5V30.5H103.651V21.936L109.583 30.5H114.5V14.5H109.349V23.0627Z" fill="white"/>
</g>
<path d="M129.295 24.405C128.335 24.6 126.505 24.795 124.9 24.81L123.58 24.825V16.11H125.11V23.52C126.415 23.52 128.215 23.355 129.07 23.13L129.295 24.405ZM134.2 28.185H132.73V14.82H134.2V28.185ZM131.515 27.54H130.06V20.37H127.33V19.095H130.06V15.09H131.515V27.54ZM146.924 28.185H145.394V14.82H146.924V28.185ZM136.319 20.535C136.319 17.715 137.594 15.855 139.739 15.855C141.884 15.855 143.129 17.715 143.129 20.55C143.129 23.355 141.884 25.215 139.739 25.215C137.594 25.215 136.319 23.355 136.319 20.535ZM141.674 20.535C141.674 18.39 140.879 17.115 139.739 17.115C138.614 17.115 137.834 18.39 137.834 20.535C137.834 22.68 138.614 23.97 139.739 23.97C140.879 23.97 141.674 22.68 141.674 20.535ZM159.902 28.185H158.372V20.895H156.137V19.605H158.372V14.82H159.902V28.185ZM155.552 24.855H149.297V15.87H150.842V19.2H154.007V15.87H155.552V24.855ZM154.007 23.61V20.4H150.842V23.61H154.007ZM172.791 23.025H168.666V25.26H173.961V26.49H161.886V25.26H167.136V23.025H163.431V18.705H170.871V16.98H163.386V15.75H172.401V19.95H164.976V21.78H172.791V23.025ZM189.709 23.025H185.584V25.26H190.879V26.49H178.804V25.26H184.054V23.025H180.349V18.705H187.789V16.98H180.304V15.75H189.319V19.95H181.894V21.78H189.709V23.025ZM203.858 26.235H191.783V24.99H203.858V26.235ZM202.283 16.26C202.283 19.8 202.058 22.305 201.698 24.06L200.183 23.865C200.513 22.53 200.738 19.635 200.738 17.475H193.178V16.26H202.283ZM215.757 24.51H214.227V14.82H215.757V24.51ZM216.072 27.795H206.922V23.595H208.452V26.565H216.072V27.795ZM212.007 19.08C212.007 20.985 210.627 22.35 208.587 22.35C206.547 22.35 205.137 20.985 205.137 19.095C205.137 17.19 206.532 15.81 208.587 15.81C210.627 15.81 212.007 17.175 212.007 19.08ZM210.477 19.08C210.477 17.91 209.757 17.085 208.587 17.085C207.447 17.085 206.682 17.94 206.682 19.08C206.682 20.175 207.447 21.045 208.587 21.045C209.757 21.045 210.477 20.175 210.477 19.08Z" fill="white"/>
<defs>
<clipPath id="clip0_730_4314">
<rect width="16" height="16" fill="white" transform="translate(98.5 14.5)"/>
</clipPath>
</defs>
</svg>
