<svg width="65" height="65" viewBox="0 0 65 65" fill="none" xmlns="http://www.w3.org/2000/svg">
<rect x="0.5" y="0.5" width="64" height="64" rx="5.5" fill="#D9D9D9"/>
<rect x="0.5" y="0.5" width="64" height="64" rx="5.5" stroke="#D9D9D9"/>
<path fill-rule="evenodd" clip-rule="evenodd" d="M39.75 16.5L39.5 16L39 15H35L34.5 16L34.25 16.5H23.5V28.5H41.5V16.5H39.75Z" fill="#F0F0F0"/>
<circle cx="32.5" cy="22.5" r="4" fill="white"/>
<circle cx="32.5" cy="22.5" r="2.5" fill="#D9D9D9"/>
<path d="M18.0098 42.6094V51.3105H17.2383V42.6094H18.0098ZM11.1738 46.3105C11.1787 44.4648 12.0967 43.2881 13.3906 43.2832C14.6797 43.2881 15.6123 44.4648 15.6074 46.3105C15.6123 48.1611 14.6797 49.333 13.3906 49.3281C12.0967 49.333 11.1787 48.1611 11.1738 46.3105ZM11.916 46.3105C11.916 47.7217 12.5215 48.6494 13.3906 48.6445C14.2646 48.6494 14.8652 47.7217 14.8652 46.3105C14.8652 44.8994 14.2646 43.9717 13.3906 43.9668C12.5215 43.9717 11.916 44.8994 11.916 46.3105ZM23.5156 43.4688V49.1133H19.502V43.4688H23.5156ZM20.2539 48.4883H22.7637V44.084H20.2539V48.4883ZM25.3809 51.3105V42.6094H26.1523V51.3105H25.3809ZM30.2422 45.2754C30.2471 46.75 31.3164 48.249 32.5957 48.8008L32.166 49.4062C31.1504 48.9473 30.2764 47.9463 29.8711 46.7451C29.4658 48.0195 28.5869 49.123 27.5957 49.6211L27.1367 49.0156C28.3818 48.4199 29.4658 46.7793 29.4707 45.2754V44.1426H27.4199V43.5078H32.3125V44.1426H30.2422V45.2754ZM33.5234 51.291V42.6094H34.2949V51.291H33.5234ZM40.248 44.4551C40.2529 45.5391 41.1855 46.4668 42.4648 46.8379L42.1133 47.4434C41.0879 47.1406 40.2773 46.4961 39.8867 45.6514C39.5059 46.5645 38.7051 47.2725 37.6699 47.6094L37.2891 47.0137C38.583 46.6182 39.4912 45.6123 39.4961 44.4551V44.2598H37.5332V43.6445H39.4961V42.5703H40.2676V43.6445H42.2109V44.2598H40.248V44.4551ZM38.8125 51.1738V48.2051H44.4863V51.1738H38.8125ZM39.5742 50.5488H43.7344V48.8301H39.5742V50.5488ZM41.957 45.6855V45.0508H43.7148V42.6094H44.4863V47.7559H43.7148V45.6855H41.957ZM53.3711 47.7656V48.3906H49.748V51.291H48.9961V48.3906H45.4219V47.7656H53.3711ZM46.4375 46.7109V42.9707H47.1992V44.1719H51.5742V42.9707H52.3457V46.7109H46.4375ZM47.1992 46.0859H51.5742V44.7969H47.1992V46.0859Z" fill="white"/>
</svg>
