<svg width="316" height="45" viewBox="0 0 316 45" fill="none" xmlns="http://www.w3.org/2000/svg">
<rect width="316" height="45" rx="6" fill="#FEE500"/>
<g clip-path="url(#clip0_730_4313)">
<path fill-rule="evenodd" clip-rule="evenodd" d="M106.5 14.1C101.529 14.1 97.5 17.2129 97.5 21.0523C97.5 23.44 99.0584 25.5449 101.432 26.7969L100.433 30.4445C100.345 30.7668 100.713 31.0237 100.996 30.8369L105.373 27.9482C105.743 27.9838 106.118 28.0046 106.5 28.0046C111.47 28.0046 115.5 24.8918 115.5 21.0523C115.5 17.2129 111.47 14.1 106.5 14.1Z" fill="black"/>
</g>
<path d="M130.715 16.215C130.7 20.79 128.615 23.85 124.79 25.86L123.8 24.75C125.735 23.865 127.355 22.44 128.27 20.595L124.355 21.015L124.115 19.68L128.78 19.335C128.945 18.735 129.065 18.12 129.11 17.46H124.79V16.215H130.715ZM134.33 14.82V20.04H136.4V21.315H134.33V28.185H132.785V14.82H134.33ZM143.694 16.215C143.679 20.79 141.594 23.85 137.769 25.86L136.779 24.75C138.714 23.865 140.334 22.44 141.249 20.595L137.334 21.015L137.094 19.68L141.759 19.335C141.924 18.735 142.044 18.12 142.089 17.46H137.769V16.215H143.694ZM147.309 14.82V20.04H149.379V21.315H147.309V28.185H145.764V14.82H147.309ZM161.982 26.475H149.907V25.245H155.157V22.965C152.682 22.725 151.107 21.315 151.107 19.32C151.107 17.115 153.042 15.645 155.937 15.645C158.877 15.645 160.797 17.115 160.797 19.32C160.797 21.33 159.192 22.74 156.687 22.98V25.245H161.982V26.475ZM159.252 19.335C159.252 17.91 157.947 16.905 155.937 16.905C153.972 16.905 152.652 17.91 152.652 19.335C152.652 20.745 153.972 21.705 155.937 21.705C157.932 21.705 159.252 20.745 159.252 19.335ZM173.791 23.025H169.666V25.26H174.961V26.49H162.886V25.26H168.136V23.025H164.431V18.705H171.871V16.98H164.386V15.75H173.401V19.95H165.976V21.78H173.791V23.025ZM190.709 23.025H186.584V25.26H191.879V26.49H179.804V25.26H185.054V23.025H181.349V18.705H188.789V16.98H181.304V15.75H190.319V19.95H182.894V21.78H190.709V23.025ZM204.858 26.235H192.783V24.99H204.858V26.235ZM203.283 16.26C203.283 19.8 203.058 22.305 202.698 24.06L201.183 23.865C201.513 22.53 201.738 19.635 201.738 17.475H194.178V16.26H203.283ZM216.757 24.51H215.227V14.82H216.757V24.51ZM217.072 27.795H207.922V23.595H209.452V26.565H217.072V27.795ZM213.007 19.08C213.007 20.985 211.627 22.35 209.587 22.35C207.547 22.35 206.137 20.985 206.137 19.095C206.137 17.19 207.532 15.81 209.587 15.81C211.627 15.81 213.007 17.175 213.007 19.08ZM211.477 19.08C211.477 17.91 210.757 17.085 209.587 17.085C208.447 17.085 207.682 17.94 207.682 19.08C207.682 20.175 208.447 21.045 209.587 21.045C210.757 21.045 211.477 20.175 211.477 19.08Z" fill="black" fill-opacity="0.85"/>
<defs>
<clipPath id="clip0_730_4313">
<rect width="17.9999" height="18" fill="white" transform="translate(97.5 13.5)"/>
</clipPath>
</defs>
</svg>
