<svg width="316" height="45" viewBox="0 0 316 45" fill="none" xmlns="http://www.w3.org/2000/svg">
<rect x="0.5" y="0.5" width="315" height="44" rx="5.5" fill="white"/>
<rect x="0.5" y="0.5" width="315" height="44" rx="5.5" stroke="#747775"/>
<path fill-rule="evenodd" clip-rule="evenodd" d="M121.64 22.7046C121.64 22.0664 121.583 21.4527 121.476 20.8636H113V24.345H117.844C117.635 25.47 117.001 26.4232 116.048 27.0614V29.3196H118.956C120.658 27.7527 121.64 25.4455 121.64 22.7046Z" fill="#4285F4"/>
<path fill-rule="evenodd" clip-rule="evenodd" d="M113 31.5C115.43 31.5 117.467 30.6941 118.956 29.3195L116.047 27.0613C115.242 27.6013 114.211 27.9204 113 27.9204C110.656 27.9204 108.672 26.3372 107.964 24.21H104.957V26.5418C106.438 29.4831 109.482 31.5 113 31.5Z" fill="#34A853"/>
<path fill-rule="evenodd" clip-rule="evenodd" d="M107.964 24.2099C107.784 23.6699 107.682 23.0931 107.682 22.4999C107.682 21.9068 107.784 21.3299 107.964 20.7899V18.4581H104.957C104.348 19.6731 104 21.0477 104 22.4999C104 23.9522 104.348 25.3268 104.957 26.5418L107.964 24.2099Z" fill="#FBBC05"/>
<path fill-rule="evenodd" clip-rule="evenodd" d="M113 17.0795C114.321 17.0795 115.507 17.5336 116.44 18.4255L119.022 15.8441C117.463 14.3918 115.426 13.5 113 13.5C109.482 13.5 106.438 15.5168 104.957 18.4582L107.964 20.79C108.672 18.6627 110.656 17.0795 113 17.0795Z" fill="#EA4335"/>
<path d="M140.92 16.085C140.92 18.32 140.8 20.195 140.47 21.785H142.525V23.03H137.23V28.685H135.7V23.03H130.45V21.785H139C139.255 20.6 139.36 18.89 139.375 17.345H131.98V16.085H140.92ZM154.469 28.505H144.914V24.995H152.444V23.855H144.839V22.655H153.974V26.075H146.444V27.275H154.469V28.505ZM153.914 15.845C153.929 17.645 153.764 18.935 153.494 20.105H155.504V21.35H143.429V20.105H152.024C152.249 19.295 152.384 18.11 152.384 17.075H144.974V15.845H153.914ZM167.312 23.525H163.187V25.76H168.482V26.99H156.407V25.76H161.657V23.525H157.952V19.205H165.392V17.48H157.907V16.25H166.922V20.45H159.497V22.28H167.312V23.525ZM184.231 23.525H180.106V25.76H185.401V26.99H173.326V25.76H178.576V23.525H174.871V19.205H182.311V17.48H174.826V16.25H183.841V20.45H176.416V22.28H184.231V23.525ZM198.379 26.735H186.304V25.49H198.379V26.735ZM196.804 16.76C196.804 20.3 196.579 22.805 196.219 24.56L194.704 24.365C195.034 23.03 195.259 20.135 195.259 17.975H187.699V16.76H196.804ZM210.278 25.01H208.748V15.32H210.278V25.01ZM210.593 28.295H201.443V24.095H202.973V27.065H210.593V28.295ZM206.528 19.58C206.528 21.485 205.148 22.85 203.108 22.85C201.068 22.85 199.658 21.485 199.658 19.595C199.658 17.69 201.053 16.31 203.108 16.31C205.148 16.31 206.528 17.675 206.528 19.58ZM204.998 19.58C204.998 18.41 204.278 17.585 203.108 17.585C201.968 17.585 201.203 18.44 201.203 19.58C201.203 20.675 201.968 21.545 203.108 21.545C204.278 21.545 204.998 20.675 204.998 19.58Z" fill="#1F1F1F"/>
</svg>
