<svg width="8" height="8" viewBox="0 0 8 8" fill="none" xmlns="http://www.w3.org/2000/svg">
<g id="map-pin-2 1" clip-path="url(#clip0_230_6706)">
<path id="Vector" d="M7 3.3335C7 5.66683 4 7.66683 4 7.66683C4 7.66683 1 5.66683 1 3.3335C1 2.53785 1.31607 1.77478 1.87868 1.21218C2.44129 0.649567 3.20435 0.333496 4 0.333496C4.79565 0.333496 5.55871 0.649567 6.12132 1.21218C6.68393 1.77478 7 2.53785 7 3.3335Z" stroke="#0075FF" stroke-width="0.5" stroke-linecap="round" stroke-linejoin="round"/>
<path id="Vector_2" d="M4 4.3335C4.55228 4.3335 5 3.88578 5 3.3335C5 2.78121 4.55228 2.3335 4 2.3335C3.44772 2.3335 3 2.78121 3 3.3335C3 3.88578 3.44772 4.3335 4 4.3335Z" stroke="#0075FF" stroke-width="0.5" stroke-linecap="round" stroke-linejoin="round"/>
</g>
<defs>
<clipPath id="clip0_230_6706">
<rect width="8" height="8" fill="white"/>
</clipPath>
</defs>
</svg>
