<svg width="16" height="16" viewBox="0 0 16 16" fill="none" xmlns="http://www.w3.org/2000/svg">
<path d="M7.64131 1.7268C7.78803 1.4295 8.21197 1.4295 8.35869 1.72679L9.96418 4.97986C10.0224 5.09792 10.1351 5.17975 10.2654 5.19868L13.8553 5.72033C14.1834 5.76801 14.3144 6.1712 14.077 6.40261L11.4793 8.93477C11.385 9.02667 11.342 9.15907 11.3642 9.28883L11.9775 12.8643C12.0335 13.1911 11.6906 13.4402 11.3971 13.286L8.18614 11.5979C8.06961 11.5366 7.93039 11.5366 7.81386 11.5979L4.60289 13.286C4.30944 13.4402 3.96647 13.1911 4.02251 12.8643L4.63575 9.28883C4.65801 9.15907 4.61499 9.02667 4.52071 8.93477L1.92298 6.40261C1.68558 6.1712 1.81658 5.76801 2.14467 5.72033L5.73464 5.19868C5.86493 5.17975 5.97756 5.09792 6.03582 4.97986L7.64131 1.7268Z" fill="#0075FF"/>
</svg>
