<svg width="48" height="49" viewBox="0 0 48 49" fill="none" xmlns="http://www.w3.org/2000/svg">
<path d="M36.417 11.8629C35.6409 11.0868 34.3872 11.0868 33.6111 11.8629L23.88 21.5741L14.1489 11.843C13.3728 11.0669 12.1191 11.0669 11.343 11.843C10.5669 12.6191 10.5669 13.8728 11.343 14.6489L21.0741 24.38L11.343 34.1111C10.5669 34.8872 10.5669 36.1409 11.343 36.917C12.1191 37.6931 13.3728 37.6931 14.1489 36.917L23.88 27.1859L33.6111 36.917C34.3872 37.6931 35.6409 37.6931 36.417 36.917C37.1931 36.1409 37.1931 34.8872 36.417 34.1111L26.6859 24.38L36.417 14.6489C37.1732 13.8927 37.1732 12.6191 36.417 11.8629Z" fill="black"/>
</svg>
