<svg width="16" height="16" viewBox="0 0 16 16" fill="none" xmlns="http://www.w3.org/2000/svg">
<mask id="path-1-inside-1_1060_10752" fill="white">
<path fill-rule="evenodd" clip-rule="evenodd" d="M13 1.4C13 1.17909 12.8209 1 12.6 1H3.4C3.17909 1 3 1.17909 3 1.4V14.2317C3 14.5553 3.36427 14.745 3.62939 14.5594L7.77062 11.6606C7.90834 11.5642 8.09166 11.5642 8.22939 11.6606L12.3706 14.5594C12.6357 14.745 13 14.5553 13 14.2317V1.4Z"/>
</mask>
<path d="M12.3706 14.5594L11.7972 15.3787L12.3706 14.5594ZM7.77062 11.6606L8.34408 12.4798L7.77062 11.6606ZM8.22939 11.6606L7.65592 12.4798L8.22939 11.6606ZM3.62939 14.5594L4.20285 15.3787L3.62939 14.5594ZM3.4 2H12.6V0H3.4V2ZM4 14.2317V1.4H2V14.2317H4ZM7.19715 10.8413L3.05592 13.7402L4.20285 15.3787L8.34408 12.4798L7.19715 10.8413ZM12.9441 13.7402L8.80285 10.8413L7.65592 12.4798L11.7972 15.3787L12.9441 13.7402ZM12 1.4V14.2317H14V1.4H12ZM11.7972 15.3787C12.725 16.0282 14 15.3644 14 14.2317H12C12 13.7463 12.5464 13.4618 12.9441 13.7402L11.7972 15.3787ZM8.34408 12.4798C8.13748 12.6244 7.86251 12.6244 7.65592 12.4798L8.80285 10.8413C8.3208 10.5039 7.6792 10.5039 7.19715 10.8413L8.34408 12.4798ZM2 14.2317C2 15.3644 3.27496 16.0282 4.20285 15.3787L3.05592 13.7402C3.45359 13.4618 4 13.7463 4 14.2317H2ZM12.6 2C12.2686 2 12 1.73137 12 1.4H14C14 0.626803 13.3732 0 12.6 0V2ZM3.4 0C2.6268 0 2 0.626801 2 1.4H4C4 1.73137 3.73137 2 3.4 2V0Z" fill="#D9D9D9" mask="url(#path-1-inside-1_1060_10752)"/>
</svg>
