<svg width="14" height="14" viewBox="0 0 14 14" fill="none" xmlns="http://www.w3.org/2000/svg">
<g id="Instagram">
<path id="Vector" d="M7.00036 1.90918C5.61779 1.90918 5.44429 1.91523 4.90127 1.93994C4.35932 1.96476 3.98939 2.05056 3.6657 2.17645C3.33088 2.30648 3.04686 2.48042 2.7639 2.7635C2.48072 3.04647 2.30679 3.3305 2.17634 3.66522C2.05013 3.98903 1.96422 4.35907 1.93983 4.90083C1.91554 5.44386 1.90918 5.61748 1.90918 7.00009C1.90918 8.38269 1.91533 8.55568 1.93994 9.09871C1.96486 9.64068 2.05066 10.0106 2.17644 10.3343C2.30658 10.6691 2.48051 10.9532 2.76358 11.2361C3.04643 11.5193 3.33045 11.6937 3.66507 11.8237C3.98897 11.9496 4.359 12.0354 4.90085 12.0602C5.44386 12.085 5.61726 12.091 6.99972 12.091C8.38239 12.091 8.55537 12.085 9.09839 12.0602C9.64034 12.0354 10.0107 11.9496 10.3346 11.8237C10.6693 11.6937 10.9529 11.5193 11.2358 11.2361C11.5189 10.9532 11.6929 10.6691 11.8233 10.3344C11.9485 10.0106 12.0344 9.64057 12.0598 9.09882C12.0842 8.55579 12.0906 8.38269 12.0906 7.00009C12.0906 5.61748 12.0842 5.44397 12.0598 4.90094C12.0344 4.35897 11.9485 3.98903 11.8233 3.66533C11.6929 3.3305 11.5189 3.04647 11.2358 2.7635C10.9526 2.48032 10.6694 2.30638 10.3343 2.17645C10.0097 2.05056 9.6396 1.96476 9.09764 1.93994C8.55463 1.91523 8.38176 1.90918 6.99877 1.90918H7.00036ZM6.54368 2.8266C6.67922 2.82639 6.83045 2.8266 7.00036 2.8266C8.35959 2.8266 8.52069 2.83148 9.05745 2.85588C9.5538 2.87857 9.82318 2.96151 10.0026 3.03119C10.2402 3.12347 10.4096 3.23377 10.5876 3.41195C10.7658 3.59013 10.8761 3.75983 10.9686 3.99741C11.0383 4.17665 11.1213 4.44604 11.1439 4.94241C11.1683 5.47907 11.1736 5.64029 11.1736 6.99892C11.1736 8.35756 11.1683 8.51877 11.1439 9.05544C11.1212 9.5518 11.0383 9.82119 10.9686 10.0004C10.8763 10.238 10.7658 10.4072 10.5876 10.5853C10.4095 10.7634 10.2403 10.8737 10.0026 10.966C9.82339 11.036 9.5538 11.1187 9.05745 11.1414C8.5208 11.1658 8.35959 11.1711 7.00036 11.1711C5.64102 11.1711 5.47992 11.1658 4.94327 11.1414C4.44692 11.1185 4.17754 11.0356 3.99798 10.9659C3.76041 10.8736 3.59072 10.7633 3.41254 10.5851C3.23437 10.407 3.12407 10.2377 3.03159 10C2.96191 9.82077 2.87886 9.55138 2.85627 9.05501C2.83188 8.51835 2.827 8.35713 2.827 6.99765C2.827 5.63816 2.83188 5.4778 2.85627 4.94113C2.87897 4.44477 2.96191 4.17538 3.03159 3.99592C3.12386 3.75835 3.23437 3.58865 3.41254 3.41047C3.59072 3.23229 3.76041 3.12198 3.99798 3.0295C4.17743 2.9595 4.44692 2.87677 4.94327 2.85397C5.41289 2.83276 5.59489 2.82639 6.54368 2.82533V2.8266ZM9.71776 3.67191C9.3805 3.67191 9.10687 3.94522 9.10687 4.2826C9.10687 4.61988 9.3805 4.89351 9.71776 4.89351C10.055 4.89351 10.3287 4.61988 10.3287 4.2826C10.3287 3.94533 10.055 3.67169 9.71776 3.67169V3.67191ZM7.00036 4.38569C5.5566 4.38569 4.38604 5.55629 4.38604 7.00009C4.38604 8.44389 5.5566 9.61395 7.00036 9.61395C8.44412 9.61395 9.61425 8.44389 9.61425 7.00009C9.61425 5.55629 8.44401 4.38569 7.00025 4.38569H7.00036ZM7.00036 5.30312C7.93748 5.30312 8.69728 6.06283 8.69728 7.00009C8.69728 7.93724 7.93748 8.69706 7.00036 8.69706C6.06313 8.69706 5.30344 7.93724 5.30344 7.00009C5.30344 6.06283 6.06313 5.30312 7.00036 5.30312Z" fill="#A8A8A8"/>
</g>
</svg>
