<svg width="14" height="14" viewBox="0 0 14 14" fill="none" xmlns="http://www.w3.org/2000/svg">
<g id="Twitter">
<path id="Vector" fill-rule="evenodd" clip-rule="evenodd" d="M11.5337 4.71845C11.5376 4.82047 11.5389 4.92244 11.5389 5.02446C11.5389 8.11741 9.36318 11.688 5.38451 11.688C4.16233 11.688 3.02588 11.2985 2.06836 10.6354C2.23762 10.654 2.40952 10.6679 2.58405 10.6679C3.5974 10.6679 4.53074 10.2922 5.27109 9.66157C4.32456 9.64765 3.52531 8.966 3.24966 8.03858C3.38199 8.0664 3.51826 8.08035 3.65763 8.08035C3.85414 8.08035 4.04494 8.05256 4.22783 7.99692C3.23734 7.78361 2.49129 6.83766 2.49129 5.70157C2.49129 5.68766 2.49129 5.683 2.49129 5.67372C2.7832 5.84529 3.11732 5.95189 3.4721 5.9658C2.89091 5.54383 2.50886 4.82509 2.50886 4.0136C2.50886 3.58699 2.61525 3.18354 2.80254 2.83576C3.86909 4.25471 5.46365 5.18678 7.26131 5.28416C7.22438 5.11259 7.20547 4.93179 7.20547 4.75094C7.20547 3.45719 8.17397 2.40918 9.36889 2.40918C9.99097 2.40918 10.5528 2.69208 10.9472 3.14652C11.4409 3.0445 11.9034 2.84976 12.3219 2.58081C12.1597 3.12799 11.8172 3.58696 11.3697 3.87446C11.8075 3.81882 12.2252 3.69371 12.6125 3.50823C12.3219 3.97658 11.9561 4.38922 11.5337 4.71845Z" fill="#A8A8A8"/>
</g>
</svg>
